<svg width="161" height="22" viewBox="0 0 161 22" fill="none" xmlns="http://www.w3.org/2000/svg">
<path d="M2.88281 9.10156L7.10156 13.3555L4.99219 15.4648L0.738281 11.2461L2.88281 9.10156ZM9.24609 2.73828L13.4648 6.99219L11.3555 9.10156L7.10156 4.88281L9.24609 2.73828ZM3.9375 8.04688L6.04688 5.9375L16.6641 16.5547L14.5547 18.6641L3.9375 8.04688ZM0.738281 17.75H9.73828V19.2617H0.738281V17.75Z" fill="#9A9EA7"/>
<path d="M24.8849 16.5V6.31818H31.7457V8.09304H27.0376V10.5192H31.3928V12.294H27.0376V14.7251H31.7656V16.5H24.8849ZM35.0873 8.86364L36.4893 11.5334L37.9261 8.86364H40.0987L37.8863 12.6818L40.1583 16.5H37.9957L36.4893 13.8601L35.0078 16.5H32.8203L35.0873 12.6818L32.8998 8.86364H35.0873ZM41.2565 19.3636V8.86364H43.3446V10.1463H43.439C43.5318 9.94081 43.6661 9.73201 43.8417 9.51989C44.0207 9.30445 44.2527 9.12547 44.5377 8.98295C44.8261 8.83712 45.1841 8.7642 45.6116 8.7642C46.1684 8.7642 46.6822 8.91004 47.1528 9.2017C47.6234 9.49006 47.9996 9.9259 48.2814 10.5092C48.5631 11.0893 48.7039 11.8168 48.7039 12.6918C48.7039 13.5436 48.5664 14.2628 48.2913 14.8494C48.0195 15.4328 47.6483 15.8752 47.1777 16.1768C46.7103 16.4751 46.1867 16.6243 45.6066 16.6243C45.1957 16.6243 44.846 16.5563 44.5576 16.4205C44.2726 16.2846 44.0389 16.1139 43.8566 15.9084C43.6743 15.6996 43.5351 15.4891 43.439 15.277H43.3744V19.3636H41.2565ZM43.3297 12.6818C43.3297 13.1359 43.3926 13.532 43.5186 13.87C43.6445 14.2081 43.8268 14.4716 44.0654 14.6605C44.3041 14.8461 44.5941 14.9389 44.9355 14.9389C45.2802 14.9389 45.5718 14.8445 45.8105 14.6555C46.0491 14.4633 46.2297 14.1982 46.3524 13.8601C46.4783 13.5187 46.5413 13.1259 46.5413 12.6818C46.5413 12.241 46.48 11.8532 46.3574 11.5185C46.2347 11.1837 46.0541 10.9219 45.8154 10.733C45.5768 10.544 45.2835 10.4496 44.9355 10.4496C44.5908 10.4496 44.2991 10.5407 44.0605 10.723C43.8252 10.9053 43.6445 11.1638 43.5186 11.4986C43.3926 11.8333 43.3297 12.2277 43.3297 12.6818ZM52.1338 6.31818V16.5H50.0159V6.31818H52.1338ZM57.1806 16.6491C56.4084 16.6491 55.7405 16.4851 55.1771 16.157C54.6169 15.8255 54.1844 15.3648 53.8795 14.7749C53.5746 14.1816 53.4221 13.4938 53.4221 12.7116C53.4221 11.9228 53.5746 11.2334 53.8795 10.6435C54.1844 10.0502 54.6169 9.58949 55.1771 9.26136C55.7405 8.92992 56.4084 8.7642 57.1806 8.7642C57.9529 8.7642 58.6191 8.92992 59.1792 9.26136C59.7426 9.58949 60.1768 10.0502 60.4817 10.6435C60.7867 11.2334 60.9391 11.9228 60.9391 12.7116C60.9391 13.4938 60.7867 14.1816 60.4817 14.7749C60.1768 15.3648 59.7426 15.8255 59.1792 16.157C58.6191 16.4851 57.9529 16.6491 57.1806 16.6491ZM57.1906 15.0085C57.5419 15.0085 57.8352 14.9091 58.0705 14.7102C58.3058 14.508 58.4832 14.233 58.6025 13.8849C58.7251 13.5369 58.7864 13.1409 58.7864 12.6967C58.7864 12.2526 58.7251 11.8565 58.6025 11.5085C58.4832 11.1605 58.3058 10.8854 58.0705 10.6832C57.8352 10.4811 57.5419 10.38 57.1906 10.38C56.8359 10.38 56.5376 10.4811 56.2957 10.6832C56.057 10.8854 55.8764 11.1605 55.7538 11.5085C55.6344 11.8565 55.5748 12.2526 55.5748 12.6967C55.5748 13.1409 55.6344 13.5369 55.7538 13.8849C55.8764 14.233 56.057 14.508 56.2957 14.7102C56.5376 14.9091 56.8359 15.0085 57.1906 15.0085ZM62.2163 16.5V8.86364H64.2695V10.196H64.3491C64.4883 9.72206 64.7219 9.36411 65.0501 9.12216C65.3782 8.87689 65.756 8.75426 66.1836 8.75426C66.2897 8.75426 66.404 8.76089 66.5266 8.77415C66.6493 8.78741 66.757 8.80563 66.8498 8.82883V10.7081C66.7504 10.6783 66.6128 10.6518 66.4371 10.6286C66.2615 10.6054 66.1007 10.5938 65.9549 10.5938C65.6433 10.5938 65.3649 10.6617 65.1197 10.7976C64.8777 10.9302 64.6855 11.1158 64.543 11.3544C64.4038 11.593 64.3342 11.8681 64.3342 12.1797V16.5H62.2163ZM70.9694 16.6491C70.1839 16.6491 69.5078 16.4901 68.941 16.1719C68.3776 15.8504 67.9434 15.3963 67.6385 14.8097C67.3335 14.2197 67.1811 13.522 67.1811 12.7166C67.1811 11.9311 67.3335 11.2417 67.6385 10.6484C67.9434 10.0552 68.3726 9.5928 68.9261 9.26136C69.4829 8.92992 70.1359 8.7642 70.8849 8.7642C71.3887 8.7642 71.8577 8.84541 72.2919 9.00781C72.7294 9.1669 73.1105 9.4072 73.4353 9.72869C73.7635 10.0502 74.0187 10.4545 74.201 10.9418C74.3833 11.4257 74.4744 11.9924 74.4744 12.642V13.2237H68.0262V11.9112H72.4808C72.4808 11.6063 72.4145 11.3362 72.2819 11.1009C72.1494 10.8655 71.9654 10.6816 71.7301 10.549C71.4981 10.4131 71.2279 10.3452 70.9197 10.3452C70.5982 10.3452 70.3132 10.4197 70.0646 10.5689C69.8193 10.7147 69.6271 10.9119 69.4879 11.1605C69.3487 11.4058 69.2774 11.6792 69.2741 11.9808V13.2287C69.2741 13.6065 69.3437 13.933 69.4829 14.2081C69.6254 14.4832 69.826 14.6953 70.0845 14.8445C70.343 14.9936 70.6496 15.0682 71.0042 15.0682C71.2395 15.0682 71.455 15.035 71.6505 14.9688C71.8461 14.9025 72.0135 14.803 72.1527 14.6705C72.2919 14.5379 72.3979 14.3755 72.4708 14.1832L74.4297 14.3125C74.3302 14.7831 74.1264 15.1941 73.8181 15.5455C73.5132 15.8935 73.1188 16.1652 72.6349 16.3608C72.1543 16.553 71.5992 16.6491 70.9694 16.6491ZM80.6915 16.5H78.3847L81.8996 6.31818H84.6737L88.1837 16.5H85.8768L83.3264 8.64489H83.2469L80.6915 16.5ZM80.5473 12.4979H85.9962V14.1783H80.5473V12.4979ZM91.3873 6.31818V16.5H89.2694V6.31818H91.3873ZM95.1017 6.31818V16.5H92.9838V6.31818H95.1017ZM101.633 16.5H99.3265L102.841 6.31818H105.616L109.125 16.5H106.819L104.268 8.64489H104.189L101.633 16.5ZM101.489 12.4979H106.938V14.1783H101.489V12.4979ZM115.108 13.2486V8.86364H117.226V16.5H115.193V15.1129H115.113C114.941 15.5604 114.654 15.92 114.253 16.1918C113.855 16.4635 113.37 16.5994 112.796 16.5994C112.286 16.5994 111.837 16.4834 111.449 16.2514C111.061 16.0194 110.758 15.6896 110.539 15.2621C110.324 14.8345 110.214 14.3224 110.211 13.7259V8.86364H112.329V13.348C112.332 13.7988 112.453 14.1551 112.692 14.4169C112.931 14.6787 113.25 14.8097 113.652 14.8097C113.907 14.8097 114.145 14.7517 114.367 14.6357C114.589 14.5163 114.768 14.3407 114.904 14.1087C115.044 13.8767 115.112 13.59 115.108 13.2486ZM122.27 16.6491C121.488 16.6491 120.815 16.4834 120.252 16.152C119.692 15.8172 119.261 15.3532 118.959 14.7599C118.661 14.1667 118.512 13.4839 118.512 12.7116C118.512 11.9295 118.663 11.2434 118.964 10.6534C119.269 10.0601 119.702 9.59777 120.262 9.26633C120.822 8.93158 121.488 8.7642 122.261 8.7642C122.927 8.7642 123.51 8.88518 124.011 9.12713C124.511 9.36908 124.907 9.70881 125.199 10.1463C125.49 10.5838 125.651 11.0975 125.681 11.6875H123.682C123.626 11.3063 123.477 10.9998 123.235 10.7678C122.996 10.5324 122.683 10.4148 122.295 10.4148C121.967 10.4148 121.68 10.5043 121.435 10.6832C121.193 10.8589 121.004 11.1158 120.868 11.4538C120.733 11.7919 120.665 12.2012 120.665 12.6818C120.665 13.169 120.731 13.5833 120.863 13.9247C120.999 14.2661 121.19 14.5263 121.435 14.7053C121.68 14.8842 121.967 14.9737 122.295 14.9737C122.537 14.9737 122.754 14.924 122.947 14.8246C123.142 14.7251 123.303 14.581 123.429 14.392C123.558 14.1998 123.643 13.9695 123.682 13.701H125.681C125.648 14.2843 125.489 14.7981 125.204 15.2422C124.922 15.683 124.533 16.0277 124.035 16.2763C123.538 16.5249 122.95 16.6491 122.27 16.6491ZM130.999 8.86364V10.4545H126.4V8.86364H130.999ZM127.444 7.03409H129.562V14.1534C129.562 14.349 129.592 14.5014 129.651 14.6108C129.711 14.7169 129.794 14.7914 129.9 14.8345C130.009 14.8776 130.135 14.8991 130.278 14.8991C130.377 14.8991 130.477 14.8909 130.576 14.8743C130.676 14.8544 130.752 14.8395 130.805 14.8295L131.138 16.4055C131.032 16.4387 130.883 16.4768 130.691 16.5199C130.498 16.5663 130.265 16.5945 129.99 16.6044C129.479 16.6243 129.032 16.5563 128.647 16.4006C128.266 16.2448 127.969 16.0028 127.757 15.6747C127.545 15.3466 127.441 14.9323 127.444 14.4318V7.03409ZM132.278 16.5V8.86364H134.396V16.5H132.278ZM133.342 7.87926C133.027 7.87926 132.757 7.77486 132.532 7.56605C132.31 7.35393 132.199 7.10038 132.199 6.8054C132.199 6.51373 132.31 6.26349 132.532 6.05469C132.757 5.84257 133.027 5.73651 133.342 5.73651C133.657 5.73651 133.926 5.84257 134.148 6.05469C134.373 6.26349 134.486 6.51373 134.486 6.8054C134.486 7.10038 134.373 7.35393 134.148 7.56605C133.926 7.77486 133.657 7.87926 133.342 7.87926ZM139.443 16.6491C138.671 16.6491 138.003 16.4851 137.44 16.157C136.879 15.8255 136.447 15.3648 136.142 14.7749C135.837 14.1816 135.685 13.4938 135.685 12.7116C135.685 11.9228 135.837 11.2334 136.142 10.6435C136.447 10.0502 136.879 9.58949 137.44 9.26136C138.003 8.92992 138.671 8.7642 139.443 8.7642C140.215 8.7642 140.882 8.92992 141.442 9.26136C142.005 9.58949 142.439 10.0502 142.744 10.6435C143.049 11.2334 143.202 11.9228 143.202 12.7116C143.202 13.4938 143.049 14.1816 142.744 14.7749C142.439 15.3648 142.005 15.8255 141.442 16.157C140.882 16.4851 140.215 16.6491 139.443 16.6491ZM139.453 15.0085C139.804 15.0085 140.098 14.9091 140.333 14.7102C140.568 14.508 140.746 14.233 140.865 13.8849C140.988 13.5369 141.049 13.1409 141.049 12.6967C141.049 12.2526 140.988 11.8565 140.865 11.5085C140.746 11.1605 140.568 10.8854 140.333 10.6832C140.098 10.4811 139.804 10.38 139.453 10.38C139.098 10.38 138.8 10.4811 138.558 10.6832C138.32 10.8854 138.139 11.1605 138.016 11.5085C137.897 11.8565 137.837 12.2526 137.837 12.6967C137.837 13.1409 137.897 13.5369 138.016 13.8849C138.139 14.233 138.32 14.508 138.558 14.7102C138.8 14.9091 139.098 15.0085 139.453 15.0085ZM146.597 12.0852V16.5H144.479V8.86364H146.497V10.2109H146.587C146.756 9.76681 147.039 9.41548 147.437 9.15696C147.835 8.89512 148.317 8.7642 148.884 8.7642C149.414 8.7642 149.876 8.88021 150.271 9.11222C150.665 9.34422 150.972 9.67566 151.19 10.1065C151.409 10.5341 151.519 11.0445 151.519 11.6378V16.5H149.401V12.0156C149.404 11.5483 149.285 11.1837 149.043 10.9219C148.801 10.6567 148.468 10.5241 148.043 10.5241C147.758 10.5241 147.506 10.5855 147.288 10.7081C147.072 10.8307 146.903 11.0097 146.781 11.245C146.661 11.477 146.6 11.7571 146.597 12.0852ZM159.441 11.0412L157.503 11.1605C157.469 10.9948 157.398 10.8456 157.289 10.7131C157.179 10.5772 157.035 10.4695 156.856 10.3899C156.681 10.3071 156.47 10.2656 156.225 10.2656C155.897 10.2656 155.62 10.3352 155.395 10.4744C155.169 10.6103 155.057 10.7926 155.057 11.0213C155.057 11.2036 155.129 11.3577 155.275 11.4837C155.421 11.6096 155.671 11.7107 156.026 11.7869L157.408 12.0653C158.15 12.2178 158.704 12.4631 159.069 12.8011C159.433 13.1392 159.615 13.5833 159.615 14.1335C159.615 14.634 159.468 15.0732 159.173 15.451C158.881 15.8288 158.48 16.1238 157.97 16.3359C157.463 16.5447 156.878 16.6491 156.215 16.6491C155.204 16.6491 154.399 16.4387 153.799 16.0178C153.202 15.5935 152.852 15.0168 152.75 14.2876L154.833 14.1783C154.896 14.4865 155.048 14.7218 155.29 14.8842C155.532 15.0433 155.842 15.1229 156.22 15.1229C156.591 15.1229 156.889 15.0516 157.115 14.9091C157.343 14.7633 157.459 14.576 157.463 14.3473C157.459 14.1551 157.378 13.9976 157.219 13.875C157.06 13.7491 156.815 13.6529 156.483 13.5866L155.161 13.3232C154.415 13.174 153.86 12.9155 153.495 12.5476C153.134 12.1797 152.954 11.7107 152.954 11.1406C152.954 10.6501 153.086 10.2275 153.351 9.87287C153.62 9.51823 153.996 9.24479 154.48 9.05256C154.967 8.86032 155.537 8.7642 156.19 8.7642C157.155 8.7642 157.914 8.96804 158.467 9.37571C159.024 9.78338 159.349 10.3385 159.441 11.0412Z" fill="#9A9EA7"/>
</svg>
