<svg width="19" height="23" viewBox="0 0 19 23" fill="none" xmlns="http://www.w3.org/2000/svg">
<path fill-rule="evenodd" clip-rule="evenodd" d="M-2.22396 22.5629C-2.48438 22.8543 -2.8099 23 -3.20052 23H-4.63281C-5.02344 23 -5.34896 22.8543 -5.60938 22.5629C-5.86979 22.2714 -6 21.924 -6 21.5205V10.0877L-3.13542 1.47953C-2.8316 0.493177 -2.15885 0 -1.11719 0H14.1172C15.1589 0 15.8316 0.493177 16.1354 1.47953L19 10.0877V21.5205C19 21.924 18.8698 22.2714 18.6094 22.5629C18.349 22.8543 18.0234 23 17.6328 23H16.2005C15.8099 23 15.4844 22.8543 15.224 22.5629C14.9635 22.2714 14.8333 21.924 14.8333 21.5205V20.1082H-1.83333V21.5205C-1.83333 21.924 -1.96354 22.2714 -2.22396 22.5629ZM-4 9H15L12.9597 2H-1.95973L-4 9ZM14 16C13.4583 16 12.9792 15.8125 12.5625 15.4375C12.1875 15.0625 12 14.5833 12 14C12 13.4167 12.1979 12.9375 12.5938 12.5625C12.9896 12.1875 13.4583 12 14 12C14.5417 12 15.0104 12.1875 15.4062 12.5625C15.8021 12.9375 16 13.4167 16 14C16 14.5833 15.8021 15.0625 15.4062 15.4375C15.0104 15.8125 14.5417 16 14 16ZM-3.4375 15.4375C-3.02083 15.8125 -2.54167 16 -2 16C-1.45833 16 -0.989583 15.8125 -0.59375 15.4375C-0.197917 15.0625 0 14.5833 0 14C0 13.4167 -0.197917 12.9375 -0.59375 12.5625C-0.989583 12.1875 -1.45833 12 -2 12C-2.54167 12 -3.01042 12.1875 -3.40625 12.5625C-3.80208 12.9375 -4 13.4167 -4 14C-4 14.5833 -3.8125 15.0625 -3.4375 15.4375Z" fill="white"/>
</svg>
