<svg width="175" height="32" viewBox="0 0 175 32" fill="none" xmlns="http://www.w3.org/2000/svg">
<g clip-path="url(#clip0_1_365)">
<path d="M4.63352 16.8182V27H3.40057V18.1108H3.34091L0.855114 19.7614V18.5085L3.40057 16.8182H4.63352ZM11.0413 16.8182V27H9.80838V18.1108H9.74872L7.26293 19.7614V18.5085L9.80838 16.8182H11.0413ZM17.4685 24.9119V23.8977L21.9429 16.8182H22.6787V18.3892H22.1815L18.8009 23.7386V23.8182H24.8264V24.9119H17.4685ZM22.2611 27V24.6037V24.1314V16.8182H23.4344V27H22.2611ZM26.9077 27L31.4617 17.9915V17.9119H26.2117V16.8182H32.7344V17.9716L28.2003 27H26.9077ZM37.5327 27.1392C36.9493 27.1392 36.424 27.0232 35.9567 26.7912C35.4893 26.5592 35.1148 26.241 34.8331 25.8366C34.5514 25.4323 34.3973 24.9716 34.3707 24.4545H35.5639C35.6103 24.9152 35.8191 25.2964 36.1903 25.598C36.5649 25.8963 37.0123 26.0455 37.5327 26.0455C37.9503 26.0455 38.3215 25.9477 38.6463 25.7521C38.9744 25.5566 39.2313 25.2881 39.4169 24.9467C39.6058 24.602 39.7003 24.2126 39.7003 23.7784C39.7003 23.3343 39.6025 22.9382 39.407 22.5902C39.2147 22.2389 38.9496 21.9621 38.6115 21.7599C38.2734 21.5578 37.8873 21.455 37.4531 21.4517C37.1416 21.4484 36.8217 21.4964 36.4936 21.5959C36.1655 21.692 35.8954 21.8163 35.6832 21.9688L34.5298 21.8295L35.1463 16.8182H40.4361V17.9119H36.1804L35.8224 20.9148H35.8821C36.0909 20.7491 36.3527 20.6115 36.6676 20.5021C36.9825 20.3928 37.3106 20.3381 37.652 20.3381C38.2751 20.3381 38.8303 20.4872 39.3175 20.7855C39.808 21.0805 40.1925 21.4848 40.4709 21.9986C40.7526 22.5123 40.8935 23.099 40.8935 23.7585C40.8935 24.4081 40.7476 24.9882 40.456 25.4986C40.1676 26.0057 39.7699 26.4067 39.2628 26.7017C38.7557 26.9934 38.179 27.1392 37.5327 27.1392ZM46.7849 16.8182H48.2565L51.7167 25.2699H51.836L55.2963 16.8182H56.7679V27H55.6145V19.2642H55.515L52.3332 27H51.2196L48.0377 19.2642H47.9383V27H46.7849V16.8182ZM58.9809 27V19.3636H60.1542V27H58.9809ZM59.5775 18.0909C59.3488 18.0909 59.1516 18.013 58.9859 17.8572C58.8235 17.7015 58.7423 17.5142 58.7423 17.2955C58.7423 17.0767 58.8235 16.8894 58.9859 16.7337C59.1516 16.5779 59.3488 16.5 59.5775 16.5C59.8062 16.5 60.0017 16.5779 60.1641 16.7337C60.3299 16.8894 60.4127 17.0767 60.4127 17.2955C60.4127 17.5142 60.3299 17.7015 60.1641 17.8572C60.0017 18.013 59.8062 18.0909 59.5775 18.0909ZM63.3765 16.8182V27H62.2032V16.8182H63.3765ZM68.6271 27.1591C67.8913 27.1591 67.2566 26.9967 66.723 26.6719C66.1927 26.3438 65.7834 25.8864 65.495 25.2997C65.21 24.7098 65.0675 24.0237 65.0675 23.2415C65.0675 22.4593 65.21 21.7699 65.495 21.1733C65.7834 20.5734 66.1844 20.1061 66.6982 19.7713C67.2152 19.4332 67.8184 19.2642 68.5078 19.2642C68.9055 19.2642 69.2983 19.3305 69.6861 19.4631C70.0739 19.5956 70.4268 19.8111 70.745 20.1094C71.0632 20.4044 71.3168 20.7955 71.5057 21.2827C71.6946 21.7699 71.7891 22.3698 71.7891 23.0824V23.5795H65.9027V22.5653H70.5959C70.5959 22.1345 70.5097 21.75 70.3374 21.4119C70.1683 21.0739 69.9264 20.8071 69.6115 20.6115C69.3 20.416 68.9321 20.3182 68.5078 20.3182C68.0405 20.3182 67.6361 20.4342 67.2947 20.6662C66.9567 20.8949 66.6965 21.1932 66.5142 21.5611C66.3319 21.929 66.2408 22.3234 66.2408 22.7443V23.4205C66.2408 23.9972 66.3402 24.486 66.5391 24.8871C66.7412 25.2848 67.0213 25.5881 67.3793 25.7969C67.7372 26.0024 68.1532 26.1051 68.6271 26.1051C68.9354 26.1051 69.2138 26.062 69.4624 25.9759C69.7143 25.8864 69.9313 25.7538 70.1136 25.5781C70.2959 25.3991 70.4368 25.1771 70.5362 24.9119L71.6697 25.2301C71.5504 25.6146 71.3499 25.9527 71.0682 26.2443C70.7865 26.5327 70.4384 26.758 70.0241 26.9205C69.6098 27.0795 69.1442 27.1591 68.6271 27.1591ZM78.883 21.0739L77.829 21.3722C77.7627 21.1965 77.6649 21.0258 77.5357 20.8601C77.4097 20.6911 77.2374 20.5518 77.0186 20.4425C76.7999 20.3331 76.5198 20.2784 76.1784 20.2784C75.7111 20.2784 75.3216 20.3861 75.0101 20.6016C74.7018 20.8137 74.5477 21.0838 74.5477 21.4119C74.5477 21.7036 74.6538 21.9339 74.8659 22.103C75.078 22.272 75.4095 22.4129 75.8602 22.5256L76.9938 22.804C77.6765 22.9697 78.1853 23.2232 78.52 23.5646C78.8548 23.9027 79.0222 24.3385 79.0222 24.8722C79.0222 25.3097 78.8962 25.7008 78.6443 26.0455C78.3957 26.3902 78.0477 26.6619 77.6003 26.8608C77.1528 27.0597 76.6325 27.1591 76.0392 27.1591C75.2603 27.1591 74.6157 26.9901 74.1053 26.652C73.5948 26.3139 73.2717 25.8201 73.1358 25.1705L74.2494 24.892C74.3555 25.303 74.556 25.6113 74.851 25.8168C75.1493 26.0223 75.5387 26.125 76.0193 26.125C76.5662 26.125 77.0004 26.009 77.3219 25.777C77.6467 25.5417 77.8091 25.2599 77.8091 24.9318C77.8091 24.6667 77.7163 24.4446 77.5307 24.2656C77.3451 24.0833 77.06 23.9474 76.6756 23.858L75.4028 23.5597C74.7035 23.3939 74.1898 23.1371 73.8616 22.7891C73.5368 22.4377 73.3744 21.9986 73.3744 21.4716C73.3744 21.0407 73.4954 20.6596 73.7374 20.3281C73.9826 19.9967 74.3157 19.7365 74.7366 19.5476C75.1609 19.3587 75.6415 19.2642 76.1784 19.2642C76.9341 19.2642 77.5274 19.4299 77.9582 19.7614C78.3924 20.0928 78.7007 20.5303 78.883 21.0739Z" fill="#9A9EA7"/>
<path d="M103.872 27L105.543 16.8182H106.537L104.866 27H103.872ZM99.2386 24.1761L99.3977 23.1818H106.994L106.835 24.1761H99.2386ZM100.293 27L101.963 16.8182H102.957L101.287 27H100.293ZM99.8352 20.6364L99.9943 19.642H107.591L107.432 20.6364H99.8352ZM108.786 27V26.1051L112.147 22.4261C112.541 21.9953 112.866 21.6207 113.121 21.3026C113.376 20.9811 113.565 20.6795 113.688 20.3977C113.814 20.1127 113.877 19.8144 113.877 19.5028C113.877 19.1449 113.791 18.835 113.618 18.5732C113.449 18.3113 113.217 18.1091 112.922 17.9666C112.627 17.8241 112.296 17.7528 111.928 17.7528C111.537 17.7528 111.196 17.834 110.904 17.9964C110.616 18.1555 110.392 18.3793 110.233 18.6676C110.077 18.956 109.999 19.294 109.999 19.6818H108.826C108.826 19.0852 108.963 18.5616 109.238 18.1108C109.514 17.66 109.888 17.3087 110.362 17.0568C110.839 16.8049 111.375 16.679 111.968 16.679C112.564 16.679 113.093 16.8049 113.554 17.0568C114.014 17.3087 114.376 17.6484 114.638 18.076C114.899 18.5036 115.03 18.9792 115.03 19.5028C115.03 19.8774 114.962 20.2436 114.826 20.6016C114.694 20.9562 114.462 21.3523 114.13 21.7898C113.802 22.224 113.347 22.7543 112.763 23.3807L110.476 25.8267V25.9062H115.209V27H108.786ZM120.484 27.1392C119.735 27.1392 119.097 26.9354 118.57 26.5277C118.043 26.1167 117.64 25.5218 117.361 24.7429C117.083 23.9607 116.944 23.0161 116.944 21.9091C116.944 20.8087 117.083 19.8691 117.361 19.0902C117.643 18.308 118.048 17.7114 118.575 17.3004C119.105 16.8861 119.741 16.679 120.484 16.679C121.226 16.679 121.861 16.8861 122.388 17.3004C122.918 17.7114 123.322 18.308 123.601 19.0902C123.883 19.8691 124.023 20.8087 124.023 21.9091C124.023 23.0161 123.884 23.9607 123.606 24.7429C123.327 25.5218 122.925 26.1167 122.398 26.5277C121.871 26.9354 121.233 27.1392 120.484 27.1392ZM120.484 26.0455C121.226 26.0455 121.803 25.6875 122.214 24.9716C122.625 24.2557 122.83 23.2348 122.83 21.9091C122.83 21.0275 122.736 20.2768 122.547 19.657C122.361 19.0372 122.093 18.5649 121.741 18.2401C121.393 17.9152 120.974 17.7528 120.484 17.7528C119.748 17.7528 119.173 18.1158 118.758 18.8416C118.344 19.5642 118.137 20.5866 118.137 21.9091C118.137 22.7907 118.23 23.5398 118.415 24.1562C118.601 24.7727 118.868 25.2417 119.216 25.5632C119.567 25.8847 119.99 26.0455 120.484 26.0455ZM129.392 16.8182V27H128.159V18.1108H128.1L125.614 19.7614V18.5085L128.159 16.8182H129.392ZM135.462 16.6591C135.879 16.6624 136.297 16.742 136.715 16.8977C137.132 17.0535 137.513 17.312 137.858 17.6733C138.203 18.0346 138.48 18.5268 138.688 19.1499C138.897 19.7696 139.002 20.5502 139.002 21.4915C139.002 22.3963 138.915 23.2 138.743 23.9027C138.574 24.602 138.329 25.192 138.007 25.6726C137.689 26.1532 137.301 26.5178 136.844 26.7663C136.39 27.0149 135.876 27.1392 135.303 27.1392C134.733 27.1392 134.224 27.0265 133.776 26.8011C133.332 26.5724 132.968 26.2559 132.683 25.8516C132.401 25.4439 132.22 24.9716 132.141 24.4347H133.354C133.463 24.902 133.68 25.2881 134.005 25.593C134.333 25.8946 134.766 26.0455 135.303 26.0455C136.088 26.0455 136.708 25.7024 137.162 25.0163C137.62 24.3303 137.848 23.3608 137.848 22.108H137.769C137.583 22.3864 137.363 22.6267 137.107 22.8288C136.852 23.031 136.569 23.1868 136.257 23.2962C135.946 23.4055 135.614 23.4602 135.263 23.4602C134.68 23.4602 134.144 23.3161 133.657 23.0277C133.173 22.736 132.785 22.3366 132.494 21.8295C132.205 21.3191 132.061 20.7358 132.061 20.0795C132.061 19.4498 132.2 18.8748 132.479 18.3544C132.761 17.834 133.155 17.4197 133.662 17.1115C134.173 16.8033 134.772 16.6525 135.462 16.6591ZM135.462 17.7528C135.044 17.7528 134.668 17.8572 134.333 18.0661C134.002 18.2749 133.738 18.5549 133.543 18.9062C133.351 19.2576 133.254 19.6487 133.254 20.0795C133.254 20.5038 133.347 20.8899 133.533 21.2379C133.722 21.5826 133.979 21.8577 134.303 22.0632C134.632 22.2654 135.004 22.3665 135.422 22.3665C135.737 22.3665 136.03 22.3052 136.302 22.1825C136.574 22.0566 136.811 21.8859 137.013 21.6705C137.218 21.4517 137.379 21.2048 137.495 20.9297C137.611 20.6513 137.669 20.3613 137.669 20.0597C137.669 19.6553 137.573 19.2775 137.381 18.9261C137.192 18.5748 136.93 18.2914 136.595 18.076C136.264 17.8606 135.886 17.7528 135.462 17.7528ZM144.098 16.6591C144.516 16.6624 144.933 16.742 145.351 16.8977C145.769 17.0535 146.15 17.312 146.494 17.6733C146.839 18.0346 147.116 18.5268 147.325 19.1499C147.534 19.7696 147.638 20.5502 147.638 21.4915C147.638 22.3963 147.552 23.2 147.379 23.9027C147.21 24.602 146.965 25.192 146.644 25.6726C146.325 26.1532 145.938 26.5178 145.48 26.7663C145.026 27.0149 144.512 27.1392 143.939 27.1392C143.369 27.1392 142.86 27.0265 142.413 26.8011C141.969 26.5724 141.604 26.2559 141.319 25.8516C141.037 25.4439 140.857 24.9716 140.777 24.4347H141.99C142.1 24.902 142.317 25.2881 142.642 25.593C142.97 25.8946 143.402 26.0455 143.939 26.0455C144.725 26.0455 145.344 25.7024 145.798 25.0163C146.256 24.3303 146.485 23.3608 146.485 22.108H146.405C146.219 22.3864 145.999 22.6267 145.744 22.8288C145.489 23.031 145.205 23.1868 144.894 23.2962C144.582 23.4055 144.251 23.4602 143.899 23.4602C143.316 23.4602 142.781 23.3161 142.294 23.0277C141.81 22.736 141.422 22.3366 141.13 21.8295C140.842 21.3191 140.698 20.7358 140.698 20.0795C140.698 19.4498 140.837 18.8748 141.115 18.3544C141.397 17.834 141.791 17.4197 142.298 17.1115C142.809 16.8033 143.409 16.6525 144.098 16.6591ZM144.098 17.7528C143.681 17.7528 143.304 17.8572 142.97 18.0661C142.638 18.2749 142.375 18.5549 142.179 18.9062C141.987 19.2576 141.891 19.6487 141.891 20.0795C141.891 20.5038 141.984 20.8899 142.169 21.2379C142.358 21.5826 142.615 21.8577 142.94 22.0632C143.268 22.2654 143.641 22.3665 144.058 22.3665C144.373 22.3665 144.667 22.3052 144.938 22.1825C145.21 22.0566 145.447 21.8859 145.649 21.6705C145.855 21.4517 146.016 21.2048 146.132 20.9297C146.248 20.6513 146.306 20.3613 146.306 20.0597C146.306 19.6553 146.209 19.2775 146.017 18.9261C145.828 18.5748 145.566 18.2914 145.232 18.076C144.9 17.8606 144.522 17.7528 144.098 17.7528ZM152.754 27.1392C152.072 27.1392 151.468 27.0182 150.945 26.7763C150.424 26.531 150.018 26.1946 149.727 25.767C149.435 25.3362 149.291 24.8456 149.294 24.2955C149.291 23.8646 149.375 23.4669 149.548 23.1023C149.72 22.7344 149.955 22.4278 150.254 22.1825C150.555 21.9339 150.892 21.7765 151.263 21.7102V21.6506C150.776 21.5246 150.388 21.2512 150.1 20.8303C149.811 20.406 149.669 19.9238 149.672 19.3835C149.669 18.8665 149.8 18.4041 150.065 17.9964C150.33 17.5888 150.695 17.2673 151.159 17.032C151.626 16.7966 152.158 16.679 152.754 16.679C153.344 16.679 153.871 16.7966 154.335 17.032C154.799 17.2673 155.164 17.5888 155.429 17.9964C155.698 18.4041 155.833 18.8665 155.837 19.3835C155.833 19.9238 155.686 20.406 155.394 20.8303C155.106 21.2512 154.723 21.5246 154.246 21.6506V21.7102C154.614 21.7765 154.945 21.9339 155.24 22.1825C155.535 22.4278 155.771 22.7344 155.946 23.1023C156.122 23.4669 156.211 23.8646 156.215 24.2955C156.211 24.8456 156.062 25.3362 155.767 25.767C155.476 26.1946 155.07 26.531 154.549 26.7763C154.032 27.0182 153.434 27.1392 152.754 27.1392ZM152.754 26.0455C153.215 26.0455 153.613 25.9709 153.948 25.8217C154.282 25.6726 154.541 25.4621 154.723 25.1903C154.905 24.9186 154.998 24.6004 155.002 24.2358C154.998 23.8513 154.899 23.5116 154.703 23.2166C154.508 22.9216 154.241 22.6896 153.903 22.5206C153.568 22.3516 153.185 22.267 152.754 22.267C152.32 22.267 151.932 22.3516 151.591 22.5206C151.253 22.6896 150.986 22.9216 150.791 23.2166C150.598 23.5116 150.504 23.8513 150.507 24.2358C150.504 24.6004 150.592 24.9186 150.771 25.1903C150.953 25.4621 151.213 25.6726 151.551 25.8217C151.889 25.9709 152.29 26.0455 152.754 26.0455ZM152.754 21.2131C153.119 21.2131 153.442 21.1402 153.724 20.9943C154.009 20.8485 154.233 20.6446 154.395 20.3828C154.557 20.121 154.64 19.8144 154.644 19.4631C154.64 19.1184 154.559 18.8184 154.4 18.5632C154.241 18.3047 154.021 18.1058 153.739 17.9666C153.457 17.8241 153.129 17.7528 152.754 17.7528C152.373 17.7528 152.04 17.8241 151.755 17.9666C151.47 18.1058 151.25 18.3047 151.094 18.5632C150.938 18.8184 150.862 19.1184 150.865 19.4631C150.862 19.8144 150.94 20.121 151.099 20.3828C151.261 20.6446 151.485 20.8485 151.77 20.9943C152.055 21.1402 152.383 21.2131 152.754 21.2131ZM161.281 27.1392C160.599 27.1392 159.995 27.0182 159.472 26.7763C158.951 26.531 158.545 26.1946 158.254 25.767C157.962 25.3362 157.818 24.8456 157.821 24.2955C157.818 23.8646 157.902 23.4669 158.075 23.1023C158.247 22.7344 158.482 22.4278 158.781 22.1825C159.082 21.9339 159.419 21.7765 159.79 21.7102V21.6506C159.303 21.5246 158.915 21.2512 158.627 20.8303C158.338 20.406 158.196 19.9238 158.199 19.3835C158.196 18.8665 158.327 18.4041 158.592 17.9964C158.857 17.5888 159.221 17.2673 159.685 17.032C160.153 16.7966 160.685 16.679 161.281 16.679C161.871 16.679 162.398 16.7966 162.862 17.032C163.326 17.2673 163.691 17.5888 163.956 17.9964C164.225 18.4041 164.36 18.8665 164.364 19.3835C164.36 19.9238 164.213 20.406 163.921 20.8303C163.633 21.2512 163.25 21.5246 162.773 21.6506V21.7102C163.141 21.7765 163.472 21.9339 163.767 22.1825C164.062 22.4278 164.297 22.7344 164.473 23.1023C164.649 23.4669 164.738 23.8646 164.742 24.2955C164.738 24.8456 164.589 25.3362 164.294 25.767C164.002 26.1946 163.596 26.531 163.076 26.7763C162.559 27.0182 161.961 27.1392 161.281 27.1392ZM161.281 26.0455C161.742 26.0455 162.14 25.9709 162.475 25.8217C162.809 25.6726 163.068 25.4621 163.25 25.1903C163.432 24.9186 163.525 24.6004 163.529 24.2358C163.525 23.8513 163.426 23.5116 163.23 23.2166C163.035 22.9216 162.768 22.6896 162.43 22.5206C162.095 22.3516 161.712 22.267 161.281 22.267C160.847 22.267 160.459 22.3516 160.118 22.5206C159.78 22.6896 159.513 22.9216 159.318 23.2166C159.125 23.5116 159.031 23.8513 159.034 24.2358C159.031 24.6004 159.119 24.9186 159.298 25.1903C159.48 25.4621 159.74 25.6726 160.078 25.8217C160.416 25.9709 160.817 26.0455 161.281 26.0455ZM161.281 21.2131C161.646 21.2131 161.969 21.1402 162.251 20.9943C162.536 20.8485 162.76 20.6446 162.922 20.3828C163.084 20.121 163.167 19.8144 163.171 19.4631C163.167 19.1184 163.086 18.8184 162.927 18.5632C162.768 18.3047 162.547 18.1058 162.266 17.9666C161.984 17.8241 161.656 17.7528 161.281 17.7528C160.9 17.7528 160.567 17.8241 160.282 17.9666C159.997 18.1058 159.777 18.3047 159.621 18.5632C159.465 18.8184 159.389 19.1184 159.392 19.4631C159.389 19.8144 159.467 20.121 159.626 20.3828C159.788 20.6446 160.012 20.8485 160.297 20.9943C160.582 21.1402 160.91 21.2131 161.281 21.2131ZM166.308 24.9119V23.8977L170.783 16.8182H171.519V18.3892H171.021L167.641 23.7386V23.8182H173.666V24.9119H166.308ZM171.101 27V24.6037V24.1314V16.8182H172.274V27H171.101Z" fill="#9A9EA7"/>
<path d="M89.4971 24.2031C88.9814 24.2031 88.5387 24.0208 88.1689 23.6562C87.8044 23.2865 87.6221 22.8437 87.6221 22.3281C87.6221 21.8177 87.8044 21.3802 88.1689 21.0156C88.5387 20.651 88.9814 20.4687 89.4971 20.4687C89.9971 20.4687 90.4346 20.651 90.8096 21.0156C91.1846 21.3802 91.3721 21.8177 91.3721 22.3281C91.3721 22.6719 91.2835 22.987 91.1064 23.2734C90.9346 23.5547 90.708 23.7812 90.4268 23.9531C90.1455 24.1198 89.8356 24.2031 89.4971 24.2031Z" fill="#9A9EA7"/>
</g>
<defs>
<clipPath id="clip0_1_365">
<rect width="175" height="32" fill="white"/>
</clipPath>
</defs>
</svg>
