<svg width="344" height="72" viewBox="0 0 344 72" fill="none" xmlns="http://www.w3.org/2000/svg">
<g clip-path="url(#clip0_1_314)">
<rect x="0.5" y="0.5" width="63" height="71" rx="9.5" fill="white" stroke="#E4E6E8"/>
<path d="M21.4759 51V46.3466L32.3487 36.2791C33.2734 35.3842 34.049 34.5788 34.6754 33.8629C35.3118 33.147 35.794 32.446 36.1222 31.7599C36.4503 31.0639 36.6143 30.3132 36.6143 29.5078C36.6143 28.6129 36.4105 27.8423 36.0028 27.196C35.5952 26.5398 35.0384 26.0376 34.3324 25.6896C33.6264 25.3317 32.826 25.1527 31.9311 25.1527C30.9964 25.1527 30.1811 25.3416 29.4851 25.7195C28.7891 26.0973 28.2521 26.6392 27.8743 27.3452C27.4964 28.0511 27.3075 28.8913 27.3075 29.8658H21.1776C21.1776 27.8672 21.63 26.1321 22.5348 24.6605C23.4396 23.1889 24.7074 22.0504 26.3381 21.245C27.9688 20.4396 29.848 20.0369 31.9759 20.0369C34.1634 20.0369 36.0675 20.4247 37.6882 21.2003C39.3189 21.9659 40.5866 23.0298 41.4915 24.392C42.3963 25.7543 42.8487 27.3153 42.8487 29.0753C42.8487 30.2287 42.62 31.3672 42.1626 32.4908C41.7152 33.6143 40.9148 34.8622 39.7614 36.2344C38.608 37.5966 36.9822 39.2322 34.8842 41.1413L30.4247 45.5114V45.7202H43.2514V51H21.4759Z" fill="#0D0A19"/>
</g>
<g clip-path="url(#clip1_1_314)">
<rect x="70.5" y="0.5" width="63" height="71" rx="9.5" fill="white" stroke="#E4E6E8"/>
<path d="M103.452 51.6712C100.887 51.6612 98.6797 51.0298 96.8303 49.777C94.9908 48.5241 93.5739 46.7095 92.5795 44.3331C91.5952 41.9567 91.108 39.098 91.1179 35.7571C91.1179 32.4261 91.6101 29.5874 92.5945 27.2408C93.5888 24.8942 95.0057 23.1094 96.8452 21.8864C98.6946 20.6534 100.897 20.0369 103.452 20.0369C106.008 20.0369 108.205 20.6534 110.045 21.8864C111.894 23.1193 113.316 24.9091 114.31 27.2557C115.305 29.5923 115.797 32.4261 115.787 35.7571C115.787 39.108 115.29 41.9716 114.295 44.348C113.311 46.7244 111.899 48.5391 110.06 49.7919C108.22 51.0447 106.018 51.6712 103.452 51.6712ZM103.452 46.3168C105.202 46.3168 106.599 45.4368 107.643 43.6768C108.688 41.9169 109.205 39.277 109.195 35.7571C109.195 33.4403 108.956 31.5114 108.479 29.9702C108.011 28.429 107.345 27.2706 106.48 26.495C105.625 25.7195 104.616 25.3317 103.452 25.3317C101.712 25.3317 100.32 26.2017 99.2763 27.9418C98.2322 29.6818 97.7053 32.2869 97.6953 35.7571C97.6953 38.1037 97.929 40.0625 98.3963 41.6335C98.8736 43.1946 99.5447 44.3679 100.41 45.1534C101.275 45.929 102.289 46.3168 103.452 46.3168Z" fill="#0D0A19"/>
</g>
<g clip-path="url(#clip2_1_314)">
<rect x="140.5" y="0.5" width="63" height="71" rx="9.5" fill="white" stroke="#E4E6E8"/>
<path d="M172.871 51.4176C170.574 51.4176 168.531 51.0447 166.741 50.299C164.961 49.5433 163.564 48.5142 162.55 47.2116C161.536 45.9091 161.028 44.4325 161.028 42.782C161.028 41.5092 161.317 40.3409 161.893 39.277C162.48 38.2031 163.276 37.3132 164.28 36.6072C165.284 35.8913 166.408 35.4339 167.651 35.2351V35.0263C166.02 34.6982 164.697 33.9077 163.683 32.6548C162.669 31.392 162.162 29.9254 162.162 28.255C162.162 26.674 162.624 25.267 163.549 24.0341C164.474 22.7912 165.741 21.8168 167.352 21.1108C168.973 20.3949 170.812 20.0369 172.871 20.0369C174.929 20.0369 176.763 20.3949 178.374 21.1108C179.995 21.8267 181.268 22.8061 182.192 24.049C183.117 25.282 183.585 26.6839 183.594 28.255C183.585 29.9354 183.067 31.402 182.043 32.6548C181.019 33.9077 179.707 34.6982 178.106 35.0263V35.2351C179.329 35.4339 180.438 35.8913 181.432 36.6072C182.436 37.3132 183.232 38.2031 183.818 39.277C184.415 40.3409 184.718 41.5092 184.728 42.782C184.718 44.4325 184.206 45.9091 183.192 47.2116C182.178 48.5142 180.776 49.5433 178.986 50.299C177.206 51.0447 175.168 51.4176 172.871 51.4176ZM172.871 46.6747C173.895 46.6747 174.79 46.4908 175.555 46.1229C176.321 45.745 176.918 45.228 177.345 44.5717C177.783 43.9055 178.001 43.1399 178.001 42.2749C178.001 41.3899 177.778 40.6094 177.33 39.9332C176.883 39.2472 176.276 38.7102 175.511 38.3224C174.745 37.9247 173.865 37.7259 172.871 37.7259C171.886 37.7259 171.006 37.9247 170.231 38.3224C169.455 38.7102 168.844 39.2472 168.396 39.9332C167.959 40.6094 167.74 41.3899 167.74 42.2749C167.74 43.1399 167.954 43.9055 168.381 44.5717C168.809 45.228 169.411 45.745 170.186 46.1229C170.962 46.4908 171.857 46.6747 172.871 46.6747ZM172.871 33.0277C173.726 33.0277 174.487 32.8537 175.153 32.5057C175.819 32.1577 176.341 31.6754 176.719 31.0589C177.097 30.4425 177.286 29.7315 177.286 28.9261C177.286 28.1307 177.097 27.4347 176.719 26.8381C176.341 26.2315 175.824 25.7592 175.168 25.4212C174.511 25.0732 173.746 24.8991 172.871 24.8991C172.006 24.8991 171.24 25.0732 170.574 25.4212C169.908 25.7592 169.386 26.2315 169.008 26.8381C168.64 27.4347 168.456 28.1307 168.456 28.9261C168.456 29.7315 168.645 30.4425 169.023 31.0589C169.401 31.6754 169.923 32.1577 170.589 32.5057C171.255 32.8537 172.016 33.0277 172.871 33.0277Z" fill="#0D0A19"/>
</g>
<g clip-path="url(#clip3_1_314)">
<rect x="210.5" y="0.5" width="63" height="71" rx="9.5" fill="white" stroke="#E4E6E8"/>
<path d="M242.528 19.9474C244.099 19.9474 245.61 20.2109 247.062 20.7379C248.523 21.255 249.826 22.0952 250.969 23.2585C252.123 24.4219 253.033 25.9631 253.699 27.8821C254.375 29.7912 254.718 32.1428 254.728 34.9368C254.718 37.532 254.42 39.8487 253.833 41.8871C253.256 43.9155 252.426 45.6406 251.342 47.0625C250.259 48.4844 248.951 49.5682 247.42 50.3139C245.898 51.0497 244.193 51.4176 242.304 51.4176C240.266 51.4176 238.466 51.0249 236.905 50.2393C235.344 49.4439 234.086 48.3651 233.131 47.0028C232.187 45.6307 231.615 44.0895 231.416 42.3793H237.785C238.033 43.4929 238.555 44.358 239.351 44.9744C240.146 45.581 241.131 45.8842 242.304 45.8842C244.293 45.8842 245.804 45.0192 246.838 43.2891C247.872 41.549 248.394 39.1676 248.404 36.1449H248.195C247.738 37.0398 247.121 37.8104 246.346 38.4567C245.57 39.093 244.68 39.5852 243.676 39.9332C242.682 40.2812 241.623 40.4553 240.499 40.4553C238.7 40.4553 237.089 40.0327 235.667 39.1875C234.255 38.3423 233.141 37.179 232.326 35.6974C231.511 34.206 231.108 32.5057 231.118 30.5966C231.108 28.5284 231.58 26.6939 232.535 25.093C233.489 23.4822 234.822 22.2195 236.532 21.3047C238.252 20.3899 240.251 19.9375 242.528 19.9474ZM242.572 25.0185C241.568 25.0185 240.673 25.2571 239.888 25.7344C239.112 26.2116 238.496 26.858 238.038 27.6733C237.591 28.4886 237.372 29.4034 237.382 30.4176C237.372 31.4318 237.586 32.3416 238.023 33.147C238.471 33.9524 239.082 34.5937 239.858 35.071C240.634 35.5384 241.518 35.772 242.513 35.772C243.259 35.772 243.945 35.6328 244.571 35.3544C245.207 35.076 245.759 34.6932 246.227 34.206C246.704 33.7088 247.077 33.1371 247.345 32.4908C247.614 31.8345 247.753 31.1335 247.763 30.3878C247.753 29.4034 247.524 28.5036 247.077 27.6882C246.629 26.8729 246.013 26.2266 245.227 25.7493C244.442 25.2621 243.557 25.0185 242.572 25.0185Z" fill="#0D0A19"/>
</g>
<g clip-path="url(#clip4_1_314)">
<rect x="280.5" y="0.5" width="63" height="71" rx="9.5" fill="white" stroke="#E4E6E8"/>
<path d="M312.528 19.9474C314.099 19.9474 315.61 20.2109 317.062 20.7379C318.523 21.255 319.826 22.0952 320.969 23.2585C322.123 24.4219 323.033 25.9631 323.699 27.8821C324.375 29.7912 324.718 32.1428 324.728 34.9368C324.718 37.532 324.42 39.8487 323.833 41.8871C323.256 43.9155 322.426 45.6406 321.342 47.0625C320.259 48.4844 318.951 49.5682 317.42 50.3139C315.898 51.0497 314.193 51.4176 312.304 51.4176C310.266 51.4176 308.466 51.0249 306.905 50.2393C305.344 49.4439 304.086 48.3651 303.131 47.0028C302.187 45.6307 301.615 44.0895 301.416 42.3793H307.785C308.033 43.4929 308.555 44.358 309.351 44.9744C310.146 45.581 311.131 45.8842 312.304 45.8842C314.293 45.8842 315.804 45.0192 316.838 43.2891C317.872 41.549 318.394 39.1676 318.404 36.1449H318.195C317.738 37.0398 317.121 37.8104 316.346 38.4567C315.57 39.093 314.68 39.5852 313.676 39.9332C312.682 40.2812 311.623 40.4553 310.499 40.4553C308.7 40.4553 307.089 40.0327 305.667 39.1875C304.255 38.3423 303.141 37.179 302.326 35.6974C301.511 34.206 301.108 32.5057 301.118 30.5966C301.108 28.5284 301.58 26.6939 302.535 25.093C303.489 23.4822 304.822 22.2195 306.532 21.3047C308.252 20.3899 310.251 19.9375 312.528 19.9474ZM312.572 25.0185C311.568 25.0185 310.673 25.2571 309.888 25.7344C309.112 26.2116 308.496 26.858 308.038 27.6733C307.591 28.4886 307.372 29.4034 307.382 30.4176C307.372 31.4318 307.586 32.3416 308.023 33.147C308.471 33.9524 309.082 34.5937 309.858 35.071C310.634 35.5384 311.518 35.772 312.513 35.772C313.259 35.772 313.945 35.6328 314.571 35.3544C315.207 35.076 315.759 34.6932 316.227 34.206C316.704 33.7088 317.077 33.1371 317.345 32.4908C317.614 31.8345 317.753 31.1335 317.763 30.3878C317.753 29.4034 317.524 28.5036 317.077 27.6882C316.629 26.8729 316.013 26.2266 315.227 25.7493C314.442 25.2621 313.557 25.0185 312.572 25.0185Z" fill="#0D0A19"/>
</g>
<defs>
<clipPath id="clip0_1_314">
<rect width="64" height="72" fill="white"/>
</clipPath>
<clipPath id="clip1_1_314">
<rect width="64" height="72" fill="white" transform="translate(70)"/>
</clipPath>
<clipPath id="clip2_1_314">
<rect width="64" height="72" fill="white" transform="translate(140)"/>
</clipPath>
<clipPath id="clip3_1_314">
<rect width="64" height="72" fill="white" transform="translate(210)"/>
</clipPath>
<clipPath id="clip4_1_314">
<rect width="64" height="72" fill="white" transform="translate(280)"/>
</clipPath>
</defs>
</svg>
